<svg id="ball" xmlns="http://www.w3.org/2000/svg" width="444" height="486" viewBox="0 0 444 486"><defs><style>.cls-1,.cls-2,.cls-3,.cls-5{fill:#fff;}.cls-1{opacity:0.36;}.cls-2{opacity:0.84;}.cls-4{fill:#00a8d6;}.cls-5{opacity:0.18;}</style></defs><title>ball</title><circle id="_1" data-name="1" class="cls-1" cx="222" cy="264" r="216"/><path id="_2" data-name="2" class="cls-2" d="M222,42C99.39,42,0,141.39,0,264S99.39,486,222,486s222-99.39,222-222S344.61,42,222,42Zm0,434C104.92,476,10,381.08,10,264c0-2.14,0-4.28.1-6.4a3,3,0,0,1,5.78-1C48.65,338.29,128.58,396,222,396s173.35-57.71,206.12-139.43a3,3,0,0,1,5.78,1c.07,2.12.1,4.26.1,6.4C434,381.08,339.08,476,222,476Z"/><path id="_3" data-name="3" class="cls-3" d="M74.35,273.8c-58,0-43.08-97.1,11.28-83.29C130.27,201.85,117.07,273.8,74.35,273.8ZM119,192.13c-33.68,0-50.52-41.47-25.7-64.81C215,12.81,408.82,119.24,352,179.87a37.49,37.49,0,0,1-53,1.73,112.78,112.78,0,0,0-154.37.34A37.39,37.39,0,0,1,119,192.13Z"/><path id="color" class="cls-4" d="M263,13A13,13,0,0,0,250,0H194a13,13,0,0,0-13,13V45a13,13,0,0,0,25.1,4.73,16,16,0,0,0,31.8,0A13,13,0,0,0,263,45Z"/><path id="_5" data-name="5" class="cls-5" d="M222,56a8,8,0,0,1-8-8V23a8,8,0,0,1,16,0V48A8,8,0,0,1,222,56Zm28-6a5,5,0,0,0,5-5V20a5,5,0,0,0-10,0V45A5,5,0,0,0,250,50Zm-51-5V20a5,5,0,0,0-10,0V45a5,5,0,0,0,10,0Z"/></svg>