<svg id="gold" xmlns="http://www.w3.org/2000/svg" width="30" height="30" viewBox="0 0 30 30"><defs><style>.cls-1{fill:#ffea88;}.cls-2{fill:#ffe567;}.cls-3{fill:#e2ba2d;}.cls-4{fill:#a97403;}.cls-5{fill:#492a00;}.cls-6{fill:#794900;}.cls-7{fill:#edc93e;}.cls-8{fill:#c59610;}.cls-9{fill:#965e00;}.cls-10{fill:#d0a41a;}.cls-11{fill:#f2d047;}.cls-12{fill:#fffcf5;}</style></defs><title>gold</title><path class="cls-1" d="M8.2,7.5A7.2,7.2,0,0,0,1,.3,6.63,6.63,0,0,0,0,.38V14.62a6.63,6.63,0,0,0,1,.08A7.2,7.2,0,0,0,8.2,7.5Z"/><circle class="cls-2" cx="7.5" cy="15.5" r="7.2"/><path class="cls-3" d="M6.2,17.5A7.19,7.19,0,0,0,0,10.38V24.62A7.19,7.19,0,0,0,6.2,17.5Z"/><path class="cls-3" d="M29,10.3a7.2,7.2,0,0,0,0,14.4,6.63,6.63,0,0,0,1-.08V10.38A6.63,6.63,0,0,0,29,10.3Z"/><circle class="cls-4" cx="17.5" cy="8.5" r="7.2"/><path class="cls-4" d="M25.51,0A7.22,7.22,0,0,0,30,3V0Z"/><path class="cls-5" d="M7.49,0H0V3a7.41,7.41,0,0,0,1.5.16A7.2,7.2,0,0,0,7.49,0Z"/><path class="cls-4" d="M30,19a7.2,7.2,0,0,0-4.49,11H30Z"/><path class="cls-5" d="M1.5,18.8A7.41,7.41,0,0,0,0,19V30H7.49a7.2,7.2,0,0,0-6-11.2Z"/><path class="cls-5" d="M13.7,4a4.8,4.8,0,1,0,7.45-4h-5.3A4.78,4.78,0,0,0,13.7,4Z"/><circle class="cls-6" cx="12.5" cy="23" r="4.8"/><circle class="cls-2" cx="25" cy="14.5" r="4.8"/><path class="cls-6" d="M9.5,7.8A4.79,4.79,0,0,0,13.24,0H5.76A4.79,4.79,0,0,0,9.5,7.8Z"/><path class="cls-1" d="M24.15,0h-5.3A4.81,4.81,0,0,0,21.5.8,4.81,4.81,0,0,0,24.15,0Z"/><path class="cls-1" d="M26.3,26a4.8,4.8,0,1,0-7.45,4h5.3A4.78,4.78,0,0,0,26.3,26Z"/><circle class="cls-7" cx="6.95" cy="9.16" r="2.4"/><circle class="cls-4" cx="26" cy="7.5" r="2.4"/><circle class="cls-1" cx="3.5" cy="3.5" r="2.4"/><circle class="cls-8" cx="19.5" cy="27.5" r="2.4"/><circle class="cls-8" cx="8" cy="19.5" r="2.4"/><circle class="cls-6" cx="22" cy="11.5" r="2.4"/><circle class="cls-8" cx="11" cy="3.5" r="2.4"/><circle class="cls-9" cx="20.5" cy="4.5" r="2.4"/><circle class="cls-7" cx="3" cy="23.5" r="2.4"/><path class="cls-1" d="M26.5,28.6A2.41,2.41,0,0,0,24.32,30h4.36A2.41,2.41,0,0,0,26.5,28.6Z"/><path class="cls-1" d="M26.5,3.4A2.4,2.4,0,0,0,28.68,0H24.32A2.4,2.4,0,0,0,26.5,3.4Z"/><circle class="cls-9" cx="10.5" cy="14" r="2.4"/><circle class="cls-8" cx="10.5" cy="27.5" r="2.4"/><circle class="cls-8" cx="2.5" cy="14" r="2.4"/><circle class="cls-3" cx="14.5" cy="9.5" r="2.4"/><path class="cls-2" d="M28.15,0A2.43,2.43,0,0,0,30,1.85V0Z"/><path class="cls-2" d="M2.85,0H0V1.85a2.73,2.73,0,0,0,.5,0A2.4,2.4,0,0,0,2.85,0Z"/><path class="cls-2" d="M30,27.15a2.4,2.4,0,0,0-1.9,2.35,2.73,2.73,0,0,0,0,.5H30Z"/><path class="cls-2" d="M.5,27.1a2.73,2.73,0,0,0-.5,0V30H2.85a2.73,2.73,0,0,0,0-.5A2.39,2.39,0,0,0,.5,27.1Z"/><circle class="cls-8" cx="5.5" cy="21.5" r="2.4"/><circle class="cls-8" cx="15.5" cy="14" r="2.4"/><path class="cls-10" d="M24.5.9A2.41,2.41,0,0,0,26.36,0H22.64A2.41,2.41,0,0,0,24.5.9Z"/><path class="cls-10" d="M24.5,26.1A2.39,2.39,0,0,0,22.64,30h3.72a2.39,2.39,0,0,0-1.86-3.9Z"/><circle class="cls-5" cx="23.5" cy="12.5" r="2.4"/><circle class="cls-5" cx="3" cy="12.5" r="2.4"/><path class="cls-6" d="M.9,8.5A2.41,2.41,0,0,0,0,6.64v3.72A2.41,2.41,0,0,0,.9,8.5Z"/><path class="cls-6" d="M28.5,6.1A2.4,2.4,0,1,0,30,10.36V6.64A2.39,2.39,0,0,0,28.5,6.1Z"/><circle class="cls-11" cx="10.5" cy="6.5" r="2.4"/><circle class="cls-12" cx="4.5" cy="4" r="2.4"/><circle class="cls-1" cx="6.5" cy="26" r="2.4"/><circle class="cls-7" cx="23" cy="19.5" r="2.4"/><path class="cls-5" d="M12,.9A2.41,2.41,0,0,0,13.86,0H10.14A2.41,2.41,0,0,0,12,.9Z"/><path class="cls-5" d="M12,26.1A2.39,2.39,0,0,0,10.14,30h3.72A2.39,2.39,0,0,0,12,26.1Z"/><circle class="cls-3" cx="10" cy="18" r="2.4"/><path class="cls-7" d="M18,28.6A2.41,2.41,0,0,0,15.82,30h4.36A2.41,2.41,0,0,0,18,28.6Z"/><path class="cls-7" d="M18,3.4A2.4,2.4,0,0,0,20.18,0H15.82A2.4,2.4,0,0,0,18,3.4Z"/><path class="cls-6" d="M.9,23.5A2.41,2.41,0,0,0,0,21.64v3.72A2.41,2.41,0,0,0,.9,23.5Z"/><path class="cls-6" d="M28.5,21.1A2.4,2.4,0,1,0,30,25.36V21.64A2.39,2.39,0,0,0,28.5,21.1Z"/><path class="cls-3" d="M28.16,29.62a2.35,2.35,0,0,0-1.28.38h2.57A2.36,2.36,0,0,0,28.16,29.62Z"/><path class="cls-3" d="M0,.49V3.55A2.38,2.38,0,0,0,.56,2,2.38,2.38,0,0,0,0,.49Z"/><path class="cls-3" d="M25.76,2a2.4,2.4,0,0,0,2.4,2.4A2.37,2.37,0,0,0,30,3.55V.49A2.33,2.33,0,0,0,29.45,0H26.88A2.4,2.4,0,0,0,25.76,2Z"/><circle class="cls-5" cx="27.52" cy="18.97" r="2.4"/><circle class="cls-3" cx="19.53" cy="9.26" r="2.4"/><circle class="cls-8" cx="9.44" cy="9.22" r="2.4"/><path class="cls-2" d="M.9,10.5A2.41,2.41,0,0,0,0,8.64v3.72A2.41,2.41,0,0,0,.9,10.5Z"/><path class="cls-2" d="M28.5,8.1A2.4,2.4,0,1,0,30,12.36V8.64A2.39,2.39,0,0,0,28.5,8.1Z"/><circle class="cls-8" cx="19" cy="20.5" r="2.4"/><path class="cls-6" d="M8.5,28.6A2.41,2.41,0,0,0,6.32,30h4.36A2.41,2.41,0,0,0,8.5,28.6Z"/><circle class="cls-12" cx="16" cy="18" r="2.4"/><path class="cls-6" d="M8.5,3.4A2.4,2.4,0,0,0,10.68,0H6.32A2.4,2.4,0,0,0,8.5,3.4Z"/><circle class="cls-4" cx="4.5" cy="13" r="2.4"/><circle class="cls-6" cx="23" cy="23" r="2.4"/><circle class="cls-11" cx="16" cy="26.5" r="2.4"/><circle class="cls-3" cx="22" cy="15" r="2.4"/><circle class="cls-6" cx="3" cy="6.5" r="2.4"/><circle class="cls-11" cx="13" cy="15.5" r="2.4"/><path class="cls-8" d="M28.1,26A2.4,2.4,0,0,0,30,28.35v-4.7A2.4,2.4,0,0,0,28.1,26Z"/><path class="cls-8" d="M2.9,26A2.39,2.39,0,0,0,.5,23.6a2.73,2.73,0,0,0-.5,0v4.7a2.73,2.73,0,0,0,.5,0A2.39,2.39,0,0,0,2.9,26Z"/><circle class="cls-6" cx="23.5" cy="4" r="2.4"/><circle class="cls-11" cx="3.5" cy="19.5" r="2.4"/><circle class="cls-11" cx="14.5" cy="6" r="2.4"/><circle class="cls-11" cx="10.5" cy="24" r="2.4"/><circle class="cls-5" cx="18" cy="16.04" r="2.4"/><path class="cls-4" d="M29.54,11.29a2.4,2.4,0,1,0,0,4.8A2.31,2.31,0,0,0,30,16v-4.7A2.31,2.31,0,0,0,29.54,11.29Z"/><path class="cls-4" d="M1.94,13.69A2.39,2.39,0,0,0,0,11.34V16A2.39,2.39,0,0,0,1.94,13.69Z"/><circle class="cls-9" cx="22" cy="25" r="2.4"/><path class="cls-8" d="M28.6,5.5A2.41,2.41,0,0,0,30,7.68V3.32A2.41,2.41,0,0,0,28.6,5.5Z"/><path class="cls-8" d="M3.4,5.5A2.4,2.4,0,0,0,0,3.32V7.68A2.4,2.4,0,0,0,3.4,5.5Z"/><circle class="cls-4" cx="8.5" cy="20.5" r="2.4"/><circle class="cls-3" cx="10.5" cy="6.5" r="2.4"/><path class="cls-4" d="M29.64,0A3.06,3.06,0,0,0,30,.36V0Z"/><path class="cls-4" d="M3.36,0H0V.36A2.39,2.39,0,0,0,1.5.9,2.41,2.41,0,0,0,3.36,0Z"/><path class="cls-4" d="M30,26.64A2.36,2.36,0,0,0,29.64,30H30Z"/><path class="cls-4" d="M1.5,26.1a2.39,2.39,0,0,0-1.5.54V30H3.36A2.39,2.39,0,0,0,1.5,26.1Z"/><circle class="cls-4" cx="18" cy="4.5" r="2.4"/><circle class="cls-10" cx="24" cy="17" r="2.4"/><path class="cls-4" d="M23.5,2.4A2.39,2.39,0,0,0,25.9,0H21.1A2.39,2.39,0,0,0,23.5,2.4Z"/><path class="cls-4" d="M23.5,27.6A2.39,2.39,0,0,0,21.1,30h4.8A2.39,2.39,0,0,0,23.5,27.6Z"/><circle class="cls-7" cx="27" cy="24" r="2.4"/><circle class="cls-9" cx="25" cy="8" r="2.4"/><circle class="cls-3" cx="16.5" cy="22.5" r="2.4"/><circle class="cls-7" cx="2.5" cy="18" r="2.4"/><circle class="cls-3" cx="5.5" cy="11.5" r="2.4"/><circle class="cls-4" cx="14.5" cy="11" r="2.4"/><path class="cls-4" d="M14,1.9A2.4,2.4,0,0,0,16.35,0h-4.7A2.4,2.4,0,0,0,14,1.9Z"/><path class="cls-4" d="M14,27.1a2.39,2.39,0,0,0-2.4,2.4,2.73,2.73,0,0,0,.05.5h4.7a2.73,2.73,0,0,0,0-.5A2.39,2.39,0,0,0,14,27.1Z"/><path class="cls-3" d="M8.82,0H6.18A2.39,2.39,0,0,0,7.5.4,2.39,2.39,0,0,0,8.82,0Z"/><path class="cls-3" d="M9.9,28a2.4,2.4,0,1,0-3.72,2H8.82A2.39,2.39,0,0,0,9.9,28Z"/><circle class="cls-2" cx="4.45" cy="13.82" r="2.4"/><circle class="cls-5" cx="8.4" cy="18.39" r="2.4"/><circle class="cls-5" cx="12.5" cy="5.5" r="2.4"/><circle class="cls-12" cx="21" cy="7.5" r="2.4"/><path class="cls-2" d="M4.18,30H6.82a2.38,2.38,0,0,0-2.64,0Z"/><path class="cls-2" d="M3.1,2A2.4,2.4,0,1,0,6.82,0H4.18A2.39,2.39,0,0,0,3.1,2Z"/><circle class="cls-5" cx="12.5" cy="23" r="2.4"/><circle class="cls-9" cx="26.5" cy="12" r="2.4"/><circle class="cls-10" cx="3" cy="8" r="2.4"/><circle class="cls-8" cx="18" cy="12" r="2.4"/><circle class="cls-8" cx="27" cy="5" r="2.4"/><circle class="cls-7" cx="19.5" cy="24" r="2.4"/><circle class="cls-2" cx="10" cy="11.5" r="2.4"/><circle class="cls-7" cx="26" cy="27.5" r="2.4"/><path class="cls-1" d="M15,1.4A2.41,2.41,0,0,0,17.18,0H12.82A2.41,2.41,0,0,0,15,1.4Z"/><path class="cls-1" d="M15,26.6A2.4,2.4,0,0,0,12.82,30h4.36A2.4,2.4,0,0,0,15,26.6Z"/><circle class="cls-6" cx="20" cy="18" r="2.4"/><path class="cls-12" d="M29.6,25.5a2.39,2.39,0,0,0,.4,1.32V24.18A2.39,2.39,0,0,0,29.6,25.5Z"/><path class="cls-12" d="M2,27.9a2.4,2.4,0,1,0-2-3.72v2.64A2.39,2.39,0,0,0,2,27.9Z"/><circle class="cls-3" cx="24.5" cy="21.5" r="2.4"/><circle class="cls-4" cx="2.5" cy="19.5" r="2.4"/></svg>