<svg id="snowflake" xmlns="http://www.w3.org/2000/svg" width="360" height="360" viewBox="0 0 360 360"><defs><style>.cls-1,.cls-2,.cls-3,.cls-4,.cls-5,.cls-6,.cls-7{fill:#fff;}.cls-1{opacity:0.9;}.cls-2{opacity:0.6;}.cls-3{opacity:0.8;}.cls-4{opacity:0.7;}.cls-5{opacity:0.75;}.cls-6{opacity:0.85;}.cls-7{opacity:0.36;}</style></defs><title>snowflake-02</title><path id="_1" data-name="1" class="cls-1" d="M111.82,289.25a4.47,4.47,0,0,0-.15,5l-2.87,4c-2.18-4.89-2.91-7.3-3.89-7.41s-2.2,2.11-5.35,6.44l-2-4.47a4.47,4.47,0,0,0,.91-5c-2.4-5.41-10.59-1.77-8.18,3.64a4.49,4.49,0,0,0,4.3,2.65l2,4.46c-10.65-1.12-9.82-2.28-5.46,7.52l-4.86-.51a4.48,4.48,0,0,0-3.85-3.27,4.47,4.47,0,0,0-.93,8.9,4.47,4.47,0,0,0,4.44-2.4l4.86.51c-6.3,8.68-6.87,7.37,3.78,8.49l-2.87,4a4.48,4.48,0,0,0-4.76,1.7c-3.48,4.79,3.77,10.05,7.24,5.26a4.47,4.47,0,0,0,.15-5l2.87-4c2.18,4.89,2.91,7.3,3.89,7.41s2.2-2.11,5.35-6.44l2,4.47a4.47,4.47,0,0,0-.91,5c2.4,5.41,10.59,1.77,8.18-3.64a4.49,4.49,0,0,0-4.3-2.65l-2-4.46c10.65,1.12,9.82,2.28,5.46-7.52l4.86.51a4.48,4.48,0,0,0,3.85,3.27,4.47,4.47,0,0,0,.93-8.9,4.47,4.47,0,0,0-4.44,2.4l-4.86-.51c6.3-8.68,6.87-7.37-3.78-8.49l2.87-4a4.48,4.48,0,0,0,4.76-1.7C122.54,289.72,115.29,284.46,111.82,289.25Zm-18.25-1.44a2,2,0,0,1,1.65,3.72A2,2,0,0,1,93.57,287.81Zm-1.81,36.66a2,2,0,0,1-2.39,3.29A2,2,0,0,1,91.76,324.47Zm20.67,5.72a2,2,0,0,1-1.65-3.72A2,2,0,0,1,112.43,330.19Zm-18.5-23.78L91.3,300.5l6.44.67,2.63,5.91Zm-14,.17a2,2,0,0,1,4,.42A2,2,0,0,1,79.93,306.58Zm9.86,8.3,3.8-5.23,6.44.68-3.8,5.23Zm15.5,3.27-3.8,5.23-2.63-5.9,3.8-5.24Zm6.78-6.56,2.63,5.91-6.44-.67-2.63-5.91Zm14-.17a2,2,0,0,1-4-.42A2,2,0,0,1,126.07,311.42Zm-9.86-8.3-3.8,5.23-6.44-.68,3.8-5.23Zm-9.07-2.6-3.8,5.24-2.63-5.91,3.8-5.23Zm9.49-10.28a2,2,0,0,1-2.39,3.29A2,2,0,0,1,116.63,290.24Z"/><path id="_2" data-name="2" class="cls-1" d="M313.88,48a4.48,4.48,0,0,1,0,5l2.73,4c2.34-4.81,3.17-7.19,4.15-7.26s2.12,2.17,5.12,6.61L328,52a4.48,4.48,0,0,1-.74-5c2.6-5.32,10.65-1.4,8.05,3.92a4.48,4.48,0,0,1-4.39,2.5l-2.14,4.39c10.68-.75,9.89-1.93,5.2,7.7l4.87-.34a4.48,4.48,0,0,1,4-3.13,4.48,4.48,0,0,1,.62,8.93,4.48,4.48,0,0,1-4.35-2.55l-4.88.34c6,8.89,6.61,7.6-4.07,8.35l2.73,4.05A4.48,4.48,0,0,1,337.54,83c3.32,4.91-4.11,9.91-7.42,5a4.48,4.48,0,0,1,0-5l-2.73-4c-2.34,4.81-3.17,7.19-4.15,7.26s-2.12-2.17-5.12-6.61L316,84a4.48,4.48,0,0,1,.74,5c-2.6,5.32-10.65,1.4-8.05-3.92a4.48,4.48,0,0,1,4.39-2.5l2.14-4.39c-10.68.75-9.89,1.93-5.2-7.7l-4.87.34a4.48,4.48,0,0,1-4,3.13,4.48,4.48,0,0,1-.62-8.93,4.48,4.48,0,0,1,4.35,2.55l4.88-.34c-6-8.89-6.61-7.6,4.07-8.35l-2.73-4A4.48,4.48,0,0,1,306.46,53C303.14,48.05,310.57,43.05,313.88,48Zm18.29-.81a2,2,0,0,0-1.79,3.66A2,2,0,0,0,332.17,47.15Zm.53,36.71A2,2,0,0,0,335,87.23,2,2,0,0,0,332.7,83.86Zm-20.87,5a2,2,0,0,0,1.79-3.66A2,2,0,0,0,311.83,88.85Zm19.32-23.12L334,59.91l-6.46.45-2.83,5.82Zm14,.65a2,2,0,0,0-4.06.29A2,2,0,0,0,345.14,66.38Zm-10.14,8L331.38,69l-6.46.45,3.62,5.36Zm-15.61,2.73L323,82.43l2.83-5.82-3.61-5.36Zm-6.54-6.8L310,76.09l6.46-.45,2.83-5.82Zm-14-.65a2,2,0,0,0,4.06-.29A2,2,0,0,0,298.86,69.62Zm10.14-8L312.62,67l6.46-.45-3.62-5.36Zm9.16-2.27,3.61,5.36,2.84-5.82L321,53.57ZM309,48.77a2,2,0,0,0,2.27,3.37A2,2,0,0,0,309,48.77Z"/><path id="_3" data-name="3" class="cls-2" d="M295.29,295a4.49,4.49,0,0,0-2.58,4.34l-4.42,2.07c.46-5.34,1-7.8.18-8.37s-2.94.78-7.79,3l.42-4.87a4.45,4.45,0,0,0,3.2-3.9c.52-5.89-8.4-6.68-8.92-.78a4.5,4.5,0,0,0,2.48,4.4l-.42,4.87c-8.77-6.14-7.49-6.76-8.43,3.92l-4-2.8a4.46,4.46,0,0,0-1.78-4.72,4.47,4.47,0,0,0-5.13,7.33,4.5,4.5,0,0,0,5,.06l4,2.8c-9.72,4.53-9.58,3.11-.81,9.25l-4.43,2.07a4.45,4.45,0,0,0-5-.82c-5.37,2.5-1.58,10.61,3.78,8.11a4.49,4.49,0,0,0,2.58-4.34l4.42-2.07c-.46,5.34-1,7.8-.18,8.37s2.94-.78,7.79-3l-.42,4.87a4.45,4.45,0,0,0-3.2,3.9c-.52,5.89,8.4,6.68,8.92.78a4.5,4.5,0,0,0-2.48-4.4l.42-4.87c8.77,6.14,7.49,6.76,8.43-3.92l4,2.8a4.46,4.46,0,0,0,1.78,4.72,4.47,4.47,0,0,0,5.13-7.33,4.5,4.5,0,0,0-5-.06l-4-2.8c9.72-4.53,9.58-3.11.81-9.25l4.43-2.07a4.45,4.45,0,0,0,5,.82C304.44,300.61,300.65,292.5,295.29,295ZM280,284.89a2,2,0,0,1-.35,4.06A2,2,0,0,1,280,284.89Zm-19.35,31.19A2,2,0,0,1,257,317.8,2,2,0,0,1,260.67,316.08Zm15.31,15a2,2,0,0,1,.35-4.06A2,2,0,0,1,276,331.11Zm-4.66-29.77.57-6.45,5.3,3.71-.56,6.45ZM259,294.7a2,2,0,0,1,3.33,2.33A2,2,0,0,1,259,294.7Zm4.59,12,5.86-2.73,5.31,3.71-5.87,2.73Zm12,10.37-5.87,2.74.57-6.45,5.86-2.73Zm9.11-2.45-.57,6.45-5.3-3.71.56-6.45ZM297,321.3a2,2,0,0,1-3.33-2.33A2,2,0,0,1,297,321.3Zm-4.59-12L286.55,312l-5.31-3.71,5.87-2.73Zm-6.68-6.66-5.86,2.73.56-6.44,5.87-2.74ZM299,298.2a2,2,0,0,1-3.69,1.72A2,2,0,0,1,299,298.2Z"/><path id="_4" data-name="4" class="cls-3" d="M4.36,219.48,0,220.89v3c11.44-3.69,11-2.2,1.9-10.4l5.37-1.74a5.18,5.18,0,0,0,5.6,1.64c6.51-2.11,3.31-12-3.2-9.84a5.16,5.16,0,0,0-3.56,4.62L.73,209.88c1.29-6,2.24-8.8,1.4-9.57-.36-.32-1-.28-2.13,0v15.24Zm9.15-11.77A2.36,2.36,0,0,1,9,209.17,2.36,2.36,0,0,1,13.51,207.71Z"/><path id="_5" data-name="5" class="cls-3" d="M2.72,236.22a5,5,0,0,0,7.28-.41,5,5,0,0,0-.36-7.28,5.18,5.18,0,0,0-5.78-.78L0,224.27v5.07l1.34,1.21A5.19,5.19,0,0,0,2.72,236.22Zm1.71-5.42a2.35,2.35,0,0,1,3.5,3.14A2.35,2.35,0,0,1,4.43,230.8Z"/><path id="_6" data-name="6" class="cls-3" d="M357.25,221.79l-5.57-5,7.12-2.31,1.2,1.08V200.31c-1.51.4-3.83,1.28-7.25,2.39l1.18-5.53a5.18,5.18,0,0,0,4.22-4c1.42-6.69-8.7-8.85-10.13-2.15a5.19,5.19,0,0,0,2.23,5.4l-1.18,5.52c-9.2-8.28-7.64-8.8-10.22,3.32l-4.19-3.78a5.19,5.19,0,0,0-1.38-5.67,5.17,5.17,0,0,0-6.92,7.69,5.18,5.18,0,0,0,5.78.78l4.2,3.78c-11.79,3.83-11.43,2.23-2.24,10.51l-5.37,1.74a5.18,5.18,0,0,0-5.6-1.64c-6.51,2.11-3.31,12,3.2,9.84a5.16,5.16,0,0,0,3.56-4.62l5.38-1.74c-1.29,6-2.24,8.8-1.4,9.57s3.49-.47,9.38-2.39l-1.18,5.53a5.18,5.18,0,0,0-4.22,4c-1.42,6.69,8.7,8.85,10.13,2.15a5.19,5.19,0,0,0-2.23-5.4l1.18-5.52c9.2,8.28,7.64,8.8,10.22-3.32l2.85,2.57v-5.07l-.34-.3.34-.11v-3ZM331.57,201.2a2.35,2.35,0,0,1-3.5-3.14A2.35,2.35,0,0,1,331.57,201.2Zm-9.08,23.09a2.36,2.36,0,0,1,4.48-1.46A2.36,2.36,0,0,1,322.49,224.29Zm31.08-34.52a2.35,2.35,0,0,1-1,4.6A2.35,2.35,0,0,1,353.57,189.77Zm-1.49,16.11,7.11-2.31-1.56,7.32-7.11,2.31Zm-20.44,6.64,7.11-2.31,5.57,5-7.12,2.31Zm10.79,29.71a2.35,2.35,0,0,1,1-4.6A2.35,2.35,0,0,1,342.43,242.23Zm1.49-16.11-7.11,2.31,1.56-7.32,7.11-2.31Zm2.92-13.7-5.56-5,1.55-7.32,5.57,5Zm6.33,19.49-5.57-5,1.56-7.32,5.56,5Z"/><path id="_7" data-name="7" class="cls-4" d="M193.16,179.55a5.21,5.21,0,0,0-4.64,3.54l-5.64.3c2.81-5.52,4.44-7.93,3.82-8.89s-3.49-.44-9.67-.12l2.57-5a5.2,5.2,0,0,0,5.12-2.8c3.1-6.1-6.12-10.8-9.22-4.7a5.16,5.16,0,0,0,.75,5.79l-2.57,5c-6.74-10.38-5.1-10.48-10.73.56l-3.07-4.73a5.18,5.18,0,0,0,.13-5.84,5.17,5.17,0,0,0-8.67,5.64,5.15,5.15,0,0,0,5.38,2.24l3.08,4.74c-12.38.65-11.62-.8-4.88,9.58l-5.64.29a5.19,5.19,0,0,0-5-3c-6.84.36-6.29,10.7.54,10.34a5.21,5.21,0,0,0,4.64-3.54l5.64-.3c-2.81,5.52-4.44,7.93-3.82,8.89s3.49.44,9.67.12l-2.57,5a5.2,5.2,0,0,0-5.12,2.8c-3.1,6.1,6.12,10.8,9.22,4.7a5.16,5.16,0,0,0-.75-5.79l2.57-5c6.74,10.38,5.1,10.48,10.73-.56l3.07,4.73a5.18,5.18,0,0,0-.13,5.84,5.17,5.17,0,0,0,8.67-5.64,5.15,5.15,0,0,0-5.38-2.24l-3.08-4.74c12.38-.65,11.62.8,4.88-9.58l5.64-.29a5.19,5.19,0,0,0,5,3C200.54,189.53,200,179.19,193.16,179.55Zm-12-17.45a2.35,2.35,0,0,1-2.13,4.2A2.35,2.35,0,0,1,181.17,162.1Zm-34.25,25.06a2.35,2.35,0,0,1-4.7.24A2.35,2.35,0,0,1,146.92,187.16Zm9.91,22.74a2.35,2.35,0,0,1,2.13-4.2A2.35,2.35,0,0,1,156.83,209.9Zm7.9-33.94,3.4-6.66,4.07,6.28-3.39,6.66Zm-10.34-12.45c2.61-1.69,5.18,2.25,2.57,3.94A2.35,2.35,0,0,1,154.39,163.51Zm-.29,14.9,7.47-.39,4.07,6.27-7.46.4Zm8.34,16.31-7.47.39,3.4-6.67,7.47-.39ZM173.27,196l-3.4,6.66-4.07-6.28,3.39-6.66Zm10.34,12.45c-2.61,1.69-5.18-2.25-2.57-3.94A2.35,2.35,0,0,1,183.61,208.49Zm.29-14.9-7.47.39-4.07-6.27,7.46-.4Zm-4.27-10-7.47.39,3.4-6.67,7.47-.39Zm16.15,1a2.35,2.35,0,0,1-4.7.24A2.35,2.35,0,0,1,195.78,184.6Z"/><path id="_8" data-name="8" class="cls-2" d="M44.44,51.23a4.35,4.35,0,0,1,.63-4.85l-2.15-4.21c-2.82,4.35-3.89,6.54-4.85,6.49s-1.78-2.34-4.14-7l-2.58,4a4.32,4.32,0,0,1,.12,4.88c-3.12,4.81-10.4.09-7.27-4.72A4.34,4.34,0,0,1,28.71,44l2.58-4c-10.36-.54-9.74.69-4.09-8l-4.72-.25a4.36,4.36,0,0,1-4.18,2.55,4.16,4.16,0,0,1-4.07-4.56,4.16,4.16,0,0,1,4.53-4.1,4.33,4.33,0,0,1,3.88,3l4.73.25c-4.72-9.25-5.45-8.09,4.9-7.55l-2.15-4.21a4.34,4.34,0,0,1-4.29-2.35c-2.61-5.11,5.12-9,7.73-3.93a4.35,4.35,0,0,1-.63,4.85l2.15,4.21c2.82-4.35,3.89-6.54,4.85-6.49s1.78,2.34,4.14,7l2.58-4a4.32,4.32,0,0,1-.12-4.88c3.12-4.81,10.4-.09,7.27,4.72a4.34,4.34,0,0,1-4.51,1.88l-2.58,4c10.36.54,9.74-.69,4.09,8l4.72.25a4.36,4.36,0,0,1,4.18-2.55,4.16,4.16,0,0,1,4.07,4.56,4.16,4.16,0,0,1-4.53,4.1,4.33,4.33,0,0,1-3.88-3l-4.73-.25c4.72,9.25,5.45,8.09-4.9,7.55L47.88,45a4.34,4.34,0,0,1,4.29,2.35C54.78,52.41,47.05,56.34,44.44,51.23ZM26.76,49.84a2,2,0,0,0,2.15-3.3A2,2,0,0,0,26.76,49.84Zm3.83-35.35A2,2,0,0,0,28.8,11,2,2,0,0,0,30.59,14.49Zm20.65-2.33a2,2,0,0,0-2.15,3.3A2,2,0,0,0,51.24,12.16Zm-21.31,20-3.41,5.25,6.26.33,3.41-5.26ZM16.56,29.82A2,2,0,0,0,20.5,30,2,2,0,0,0,16.56,29.82Zm10.69-6.45L30.09,29l6.27.33L33.51,23.7Zm15.33-.78L39.73,17l-3.41,5.25,2.85,5.59Zm5.49,7.3,3.41-5.25-6.26-.33-3.41,5.26Zm13.37,2.29A2,2,0,0,0,57.5,32,2,2,0,0,0,61.44,32.18ZM50.75,38.63l-2.84-5.58-6.27-.33,2.85,5.58Zm-9.07,1.11-2.85-5.59-3.41,5.26L38.27,45ZM49.2,51a2,2,0,0,0-1.79-3.51A2,2,0,0,0,49.2,51Z"/><path id="_9" data-name="9" class="cls-3" d="M183.5,107.15a5.16,5.16,0,0,0-.75-5.79l2.57-5c3.37,5.19,4.65,7.81,5.78,7.75s2.14-2.8,5-8.31l3.07,4.73a5.18,5.18,0,0,0-.13,5.84c3.72,5.73,12.41.1,8.68-5.64a5.18,5.18,0,0,0-5.39-2.24l-3.08-4.74c12.36-.65,11.63.82,4.88-9.57l5.64-.3a5.2,5.2,0,0,0,5,3,5.18,5.18,0,0,0-.54-10.34,5.21,5.21,0,0,0-4.64,3.54l-5.64.3c5.63-11,6.51-9.66-5.85-9l2.56-5a5.2,5.2,0,0,0,5.13-2.8c3.11-6.1-6.12-10.79-9.22-4.7a5.16,5.16,0,0,0,.75,5.79l-2.57,5c-3.37-5.19-4.65-7.81-5.78-7.75s-2.14,2.8-5,8.31l-3.07-4.73a5.18,5.18,0,0,0,.13-5.84c-3.72-5.73-12.41-.1-8.68,5.64a5.18,5.18,0,0,0,5.39,2.24l3.08,4.74c-12.36.65-11.63-.82-4.88,9.57l-5.64.3a5.2,5.2,0,0,0-5-3,5.18,5.18,0,0,0,.54,10.34,5.21,5.21,0,0,0,4.64-3.54l5.64-.3c-5.63,11-6.51,9.66,5.85,9l-2.56,5a5.2,5.2,0,0,0-5.13,2.8C171.17,108.55,180.4,113.24,183.5,107.15Zm21.11-1.66a2.35,2.35,0,0,1-2.57-3.94A2.35,2.35,0,0,1,204.61,105.49ZM200,63.3a2.36,2.36,0,0,1,2.14-4.2A2.36,2.36,0,0,1,200,63.3Zm-24.65-2.79A2.35,2.35,0,0,1,178,64.45,2.35,2.35,0,0,1,175.39,60.51Zm25.44,23.81,4.07,6.27-7.47.4-4.08-6.28Zm15.95-2.72a2.35,2.35,0,0,1-4.7.24A2.35,2.35,0,0,1,216.78,81.6ZM204,73.89l-3.4,6.67-7.48.39,3.4-6.67ZM185.73,73l3.39-6.66,4.08,6.27-3.4,6.66Zm-6.56,8.72-4.07-6.27,7.47-.4,4.08,6.28ZM163.22,84.4a2.35,2.35,0,0,1,4.7-.24A2.35,2.35,0,0,1,163.22,84.4ZM176,92.11l3.4-6.67,7.48-.39-3.4,6.67Zm10.83,1.32,3.4-6.66L194.27,93l-3.39,6.66Zm-9,13.47a2.36,2.36,0,0,1,2.14-4.2A2.36,2.36,0,0,1,177.82,106.9Z"/><path id="_10" data-name="10" class="cls-5" d="M86.47,252.5a3.28,3.28,0,0,0,1.75-3.57l5-4.38,1.27,6.55a3.3,3.3,0,1,0,3.24-.63l-1.27-6.55,6.31,2.17a3.29,3.29,0,1,0,1.07-3.12l-6.31-2.17,5-4.38a3.29,3.29,0,1,0-2.17-2.49l-5,4.38-1.28-6.55a3.3,3.3,0,1,0-3.24.63l1.28,6.55-6.31-2.17a3.3,3.3,0,1,0-1.08,3.12l6.31,2.17-5,4.38a3.3,3.3,0,1,0,.41,6.06Z"/><path id="_11" data-name="11" class="cls-2" d="M96.09,118.7a3,3,0,0,1-1.19,3.46l.43,6.12,5.08-3.43a3,3,0,1,1,1.7,2.51L97,130.79l5.52,2.69a3,3,0,0,1,4.65,3.14,3,3,0,0,1-4.3,2.09,3,3,0,0,1-1.68-2.51l-5.51-2.69.42,6.12a3,3,0,1,1-3,.21l-.43-6.12-5.08,3.43a3,3,0,1,1-1.7-2.51L91,131.21l-5.52-2.69a3,3,0,0,1-4.65-3.14,3,3,0,0,1,4.3-2.09,3,3,0,0,1,1.68,2.51l5.51,2.69-.42-6.12a3,3,0,1,1,4.21-3.67Z"/><path id="_12" data-name="12" class="cls-5" d="M257.86,59.79A3.48,3.48,0,0,0,256.09,56l-.25-7,6.22,3.3a3.48,3.48,0,1,0,1.63-3.07l-6.21-3.3,6-3.73a3.47,3.47,0,1,0-1.85-2.95l-6,3.73-.24-7a3.47,3.47,0,0,0-1.13-6.34A3.48,3.48,0,0,0,251.91,36l.25,7-6.22-3.3a3.48,3.48,0,1,0-1.63,3.07l6.21,3.3-6,3.73a3.47,3.47,0,1,0,1.85,2.95l6-3.73.24,7a3.44,3.44,0,0,0-1.63,3,3.48,3.48,0,0,0,6.88.63Z"/><path id="_13" data-name="13" class="cls-6" d="M87.48,40.91a3.27,3.27,0,0,1,3,2.6l6.32,2.05-1.38-6.5a3.28,3.28,0,1,1,3.21-.68l1.38,6.5L105,40.43a3.29,3.29,0,0,1,1.68-3.59A3.25,3.25,0,0,1,110,37a3.27,3.27,0,0,1-2.84,5.83l-4.94,4.45,6.32,2a3.28,3.28,0,1,1-1,3.12l-6.32-2.05,1.39,6.5a3.28,3.28,0,1,1-3.22.68L98,51.12l-4.93,4.45a3.29,3.29,0,1,1-2.2-2.44l4.93-4.45-6.31-2a3.28,3.28,0,0,1-5-4.17A3.26,3.26,0,0,1,87.48,40.91Z"/><path id="_14" data-name="14" class="cls-2" d="M287.68,202.86a3.36,3.36,0,0,1-2,3.58l-.72,6.82,6.26-2.79a3.4,3.4,0,0,1,2.8-3,3.35,3.35,0,0,1,3.24,1.27,3.38,3.38,0,0,1-4.66,4.82l-6.26,2.78,5.55,4a3.39,3.39,0,0,1,4,.93,3.34,3.34,0,0,1,.52,3.44,3.38,3.38,0,0,1-6.5-1.62l-5.54-4-.72,6.81a3.39,3.39,0,1,1-3.37-.35l.72-6.82-6.26,2.79a3.4,3.4,0,0,1-2.8,3,3.35,3.35,0,0,1-3.24-1.27,3.38,3.38,0,0,1,4.66-4.82l6.26-2.78-5.55-4a3.39,3.39,0,0,1-4-.93,3.34,3.34,0,0,1-.52-3.44,3.38,3.38,0,0,1,6.5,1.62l5.54,4,.72-6.81a3.38,3.38,0,0,1,3.14-5.92A3.34,3.34,0,0,1,287.68,202.86Z"/><path id="_15" data-name="15" class="cls-5" d="M167.31,341.34a2.74,2.74,0,0,0,.87-3.21l3.44-4.4,2.09,5.17a2.75,2.75,0,0,0-.06,3.33,2.73,2.73,0,0,0,2.62,1.09,2.75,2.75,0,0,0,0-5.45l-2.09-5.17,5.53.77a2.75,2.75,0,0,0,5.1,0,2.75,2.75,0,0,0-4.72-2.73l-5.52-.77,3.43-4.4a2.76,2.76,0,1,0-2.17-1.7l-3.44,4.4-2.09-5.17a2.74,2.74,0,0,0,.05-3.33,2.7,2.7,0,0,0-2.61-1.09,2.75,2.75,0,0,0,0,5.45l2.09,5.17-5.53-.77a2.75,2.75,0,0,0-5.1,0,2.75,2.75,0,0,0,4.72,2.73l5.52.77-3.43,4.4a2.75,2.75,0,1,0,1.3,4.91Z"/><path id="_16" data-name="16" class="cls-6" d="M208.89,254.69a3.37,3.37,0,0,1-4,.93l-5.54,4,6.26,2.78a3.39,3.39,0,1,1-1.38,3.1L198,262.74l.72,6.81a3.38,3.38,0,0,1,2,3.58,3.34,3.34,0,0,1-2.2,2.69,3.38,3.38,0,0,1-3.14-5.91l-.72-6.82-5.54,4a3.38,3.38,0,1,1-2-2.74l5.54-4-6.26-2.78a3.39,3.39,0,1,1,1.38-3.1l6.26,2.79-.72-6.81a3.38,3.38,0,0,1-2-3.58,3.34,3.34,0,0,1,2.2-2.69,3.38,3.38,0,0,1,3.14,5.91l.72,6.82,5.54-4a3.38,3.38,0,1,1,6,1.81Z"/><path id="_17" data-name="17" class="cls-5" d="M180.47,26.72A3.13,3.13,0,0,1,177,25.06l-6.39-.34,2.9,5.7a3.16,3.16,0,1,1-2.81,1.43l-2.91-5.69-3.48,5.36a3.16,3.16,0,1,1-2.65-1.72l3.48-5.36-6.38-.34a3.17,3.17,0,1,1,.16-3.16l6.39.34-2.9-5.7a3.16,3.16,0,1,1,2.81-1.43l2.91,5.69,3.48-5.36a3.16,3.16,0,1,1,2.65,1.72l-3.48,5.36,6.38.34a3.16,3.16,0,1,1,3.27,4.82Z"/><path id="_18" data-name="18" class="cls-5" d="M358.82,280.84A3.72,3.72,0,0,0,353.4,283a3.7,3.7,0,0,0,5.4,4.23l1.2.69v-6A3.78,3.78,0,0,0,358.82,280.84Z"/><path id="_19" data-name="19" class="cls-5" d="M358.8,294.75a3.7,3.7,0,0,0-5.4,4.23,3.72,3.72,0,0,0,5.42,2.18,3.78,3.78,0,0,0,1.18-1.1v-6Z"/><path id="_20" data-name="20" class="cls-5" d="M7.15,294.21v7.49a3.7,3.7,0,1,0,3.7,0v-7.49L17.34,298a3.7,3.7,0,0,0,7.26,1,3.7,3.7,0,0,0-5.4-4.23L12.71,291l6.49-3.75a3.66,3.66,0,0,0,3.69,0A3.71,3.71,0,1,0,17.34,284l-6.49,3.75V280.3a3.7,3.7,0,1,0-3.7,0v7.49L.66,284a3.86,3.86,0,0,0-.66-2.1v6L5.29,291,0,294.06v6A3.86,3.86,0,0,0,.66,298Z"/><path id="_21" data-name="21" class="cls-6" d="M290.46,153.94a3.14,3.14,0,0,0-3.16-2.14l-3.48-5.36,6.38-.34a3.17,3.17,0,1,0-.16-3.16l-6.39.34,2.9-5.7a3.16,3.16,0,1,0-2.81-1.43l-2.91,5.69-3.48-5.36a3.16,3.16,0,1,0-2.65,1.72l3.48,5.36-6.38.34a3.17,3.17,0,1,0,.16,3.16l6.39-.34-2.9,5.7a3.16,3.16,0,1,0,2.81,1.43l2.91-5.69,3.48,5.36a3.13,3.13,0,0,0,.16,3.14,3.16,3.16,0,0,0,5.65-2.72Z"/><path id="_22" data-name="22" class="cls-5" d="M30.89,140.19a3.86,3.86,0,0,0,1.35,4.48l-.82,7.79-6.33-4.6a3.88,3.88,0,0,0-2.42-4,3.83,3.83,0,0,0-3.92.65A3.86,3.86,0,0,0,22.81,151l6.34,4.61L22,158.78a3.88,3.88,0,1,0,1.58,3.54l7.15-3.19-.82,7.8a3.86,3.86,0,1,0,3.86.4l.82-7.79,6.33,4.6a3.88,3.88,0,0,0,2.42,4,3.83,3.83,0,0,0,3.92-.65A3.86,3.86,0,0,0,43.19,161l-6.34-4.6L44,153.22a3.88,3.88,0,1,0-1.58-3.54l-7.15,3.19.82-7.8a3.87,3.87,0,1,0-5.21-4.88Z"/><path id="_23" data-name="23" class="cls-7" d="M259.56,94.49a4.8,4.8,0,1,0,3.08-6A4.8,4.8,0,0,0,259.56,94.49Zm7.3-2.37a2.88,2.88,0,1,1-3.63-1.85A2.87,2.87,0,0,1,266.86,92.12Z"/><path id="_24" data-name="24" class="cls-7" d="M79.15,96.61a4.8,4.8,0,1,1-1,6.72A4.8,4.8,0,0,1,79.15,96.61Zm4.62,6.13a2.88,2.88,0,1,0-4-.57A2.87,2.87,0,0,0,83.77,102.74Z"/><path id="_25" data-name="25" class="cls-7" d="M59.23,303.46a4.8,4.8,0,1,1,2-6.49A4.81,4.81,0,0,1,59.23,303.46Zm-3.61-6.78a2.88,2.88,0,1,0,3.9,1.19A2.89,2.89,0,0,0,55.62,296.68Z"/><path id="_26" data-name="26" class="cls-7" d="M233.76,191.76a6.4,6.4,0,1,0,3.82-8.2A6.41,6.41,0,0,0,233.76,191.76Zm9.62-3.5a3.84,3.84,0,1,1-4.92-2.29A3.84,3.84,0,0,1,243.38,188.26Z"/><path id="_27" data-name="27" class="cls-7" d="M351.39,10.39a4.79,4.79,0,1,0-6.78,0A4.78,4.78,0,0,0,351.39,10.39ZM346,5A2.88,2.88,0,1,1,346,9,2.9,2.9,0,0,1,346,5Z"/><path id="_28" data-name="28" class="cls-7" d="M6,350.81A6.4,6.4,0,1,1,9.81,359,6.39,6.39,0,0,1,6,350.81Zm9.62,3.5a3.84,3.84,0,1,0-4.92,2.3A3.85,3.85,0,0,0,15.61,354.31Z"/><path id="_29" data-name="29" class="cls-7" d="M253.84,344.66a4.8,4.8,0,1,1,5.82-3.5A4.81,4.81,0,0,1,253.84,344.66Zm1.86-7.45a2.88,2.88,0,1,0,2.09,3.49A2.87,2.87,0,0,0,255.7,337.21Z"/><path id="_30" data-name="30" class="cls-7" d="M213.84,311.66a4.8,4.8,0,1,1,5.82-3.5A4.81,4.81,0,0,1,213.84,311.66Zm1.86-7.45a2.88,2.88,0,1,0,2.09,3.49A2.87,2.87,0,0,0,215.7,304.21Z"/><path id="_31" data-name="31" class="cls-7" d="M132.1,237.71a5.6,5.6,0,1,1,7.61,2.19A5.6,5.6,0,0,1,132.1,237.71Zm7.84-4.34a3.36,3.36,0,1,0-1.31,4.57A3.37,3.37,0,0,0,139.94,233.37Z"/><path id="_32" data-name="32" class="cls-7" d="M154,275.19a6.4,6.4,0,1,0,3.82-8.2A6.39,6.39,0,0,0,154,275.19Zm9.62-3.5a3.84,3.84,0,1,1-4.92-2.3A3.85,3.85,0,0,1,163.61,271.69Z"/><path id="_33" data-name="33" class="cls-7" d="M317.63,257.87a8,8,0,1,0,3.5,10.76A8,8,0,0,0,317.63,257.87Zm-5.81,11.41a4.8,4.8,0,1,1,6.46-2.1A4.81,4.81,0,0,1,311.82,269.28Z"/><path id="_34" data-name="34" class="cls-7" d="M40.5,84.77a4.8,4.8,0,1,0-5.27-4.27A4.8,4.8,0,0,0,40.5,84.77Zm-.8-7.63a2.88,2.88,0,1,1-2.56,3.16A2.87,2.87,0,0,1,39.7,77.14Z"/><path id="_35" data-name="35" class="cls-7" d="M224.57,32.52a4.8,4.8,0,1,1-6-3.09A4.82,4.82,0,0,1,224.57,32.52Zm-7.31,2.37a2.88,2.88,0,1,0,1.85-3.63A2.89,2.89,0,0,0,217.26,34.89Z"/><path id="_36" data-name="36" class="cls-7" d="M138.64,52.87a5.6,5.6,0,1,0-1.51,7.77A5.6,5.6,0,0,0,138.64,52.87Zm-7.43,5a3.36,3.36,0,1,1,4.67.91A3.38,3.38,0,0,1,131.21,57.88Z"/><path id="_37" data-name="37" class="cls-7" d="M12.61,115.19a8,8,0,1,1,1.58,11.2A8,8,0,0,1,12.61,115.19Zm10.22,7.7a4.8,4.8,0,1,0-6.72.94A4.8,4.8,0,0,0,22.83,122.89Z"/><path id="_38" data-name="38" class="cls-7" d="M353.54,139.11a8.8,8.8,0,1,1-12.43-.65A8.81,8.81,0,0,1,353.54,139.11Zm-10.46,9.42a5.28,5.28,0,1,0,.39-7.45A5.27,5.27,0,0,0,343.08,148.53Z"/><path id="_39" data-name="39" class="cls-7" d="M81.16,200a8,8,0,1,1,8.8-7.12A8,8,0,0,1,81.16,200Zm1.34-12.73a4.8,4.8,0,1,0,4.27,5.27A4.8,4.8,0,0,0,82.5,187.23Z"/><path id="_40" data-name="40" class="cls-7" d="M193.92,353.26a5.6,5.6,0,1,1,3.34-7.18A5.6,5.6,0,0,1,193.92,353.26Zm-3.07-8.42a3.36,3.36,0,1,0,4.31,2A3.38,3.38,0,0,0,190.85,344.84Z"/><path id="_41" data-name="41" class="cls-7" d="M174.79,134.43a4.8,4.8,0,1,1-.36,6.78A4.8,4.8,0,0,1,174.79,134.43Zm5.14,5.71a2.88,2.88,0,1,0-4.07-.21A2.89,2.89,0,0,0,179.93,140.14Z"/><path id="_42" data-name="42" class="cls-7" d="M212.76,133.22a8,8,0,1,0,11,2.54A8,8,0,0,0,212.76,133.22Zm6.78,10.85a4.8,4.8,0,1,1,1.53-6.61A4.8,4.8,0,0,1,219.54,144.07Z"/><path id="_43" data-name="43" class="cls-7" d="M248.69,242.62a8.8,8.8,0,1,0-7.31,10.07A8.81,8.81,0,0,0,248.69,242.62Zm-13.9,2.21a5.28,5.28,0,1,1,6,4.38A5.27,5.27,0,0,1,234.79,244.83Z"/><path id="_44" data-name="44" class="cls-7" d="M320.67,343.75a7.2,7.2,0,1,0-1.42-10.08A7.2,7.2,0,0,0,320.67,343.75Zm6.93-9.2a4.32,4.32,0,1,1-6.05.85A4.33,4.33,0,0,1,327.6,334.55Z"/><path id="_45" data-name="45" class="cls-7" d="M42.84,251A8.8,8.8,0,1,1,39,239.16,8.82,8.82,0,0,1,42.84,251ZM30.3,244.6a5.28,5.28,0,1,0,7.1-2.3A5.28,5.28,0,0,0,30.3,244.6Z"/><path id="_46" data-name="46" class="cls-7" d="M104.19,350.62a7.2,7.2,0,1,0-6.81,7.57A7.21,7.21,0,0,0,104.19,350.62Zm-11.5.61a4.32,4.32,0,1,1,4.54,4.08A4.31,4.31,0,0,1,92.69,351.23Z"/><path id="_47" data-name="47" class="cls-7" d="M321.78,120.55a5.6,5.6,0,1,1,4.77-6.33A5.61,5.61,0,0,1,321.78,120.55Zm-1.25-8.88a3.36,3.36,0,1,0,3.8,2.86A3.37,3.37,0,0,0,320.53,111.67Z"/><path id="_48" data-name="48" class="cls-7" d="M145.38,109.46a5.6,5.6,0,1,1-6.92-3.84A5.6,5.6,0,0,1,145.38,109.46Zm-8.61,2.47a3.36,3.36,0,1,0,2.3-4.16A3.37,3.37,0,0,0,136.77,111.93Z"/></svg>